<svg xmlns="http://www.w3.org/2000/svg" height="427" width="347"><rect id="backgroundrect" width="100%" height="100%" x="0" y="0" fill="none" stroke="none"/><g class="currentLayer" style=""><title>Layer 1</title><path d="m232.40163084200668,154.704439163208 c-5.523438,0 -10,4.476563 -10,10 v189 c0,5.519531 4.476562,10 10,10 c5.5234369999999995,0 10,-4.480469 10,-10 v-189 c0,-5.5234369999999995 -4.476563,-10 -10,-10 zm0,0 " id="svg_1" class="" fill-opacity="1" fill="#ff0000"/><path d="m114.40163084200668,154.704439163208 c-5.523438,0 -10,4.476563 -10,10 v189 c0,5.519531 4.476562,10 10,10 c5.5234369999999995,0 10,-4.480469 10,-10 v-189 c0,-5.5234369999999995 -4.476563,-10 -10,-10 zm0,0 " id="svg_2" class="" fill-opacity="1" fill="#ff0000"/><path d="m28.401630842006682,127.12240816320801 v246.378906 c0,14.5625 5.339843,28.238281 14.667968,38.050781 c9.285156,9.839844 22.207032,15.425781 35.730469,15.449219 h189.203125 c13.527344,-0.023438000000000007 26.449219,-5.609375 35.730469,-15.449219 c9.328125,-9.8125 14.667969,-23.488281 14.667969,-38.050781 v-246.378906 c18.542968,-4.921875 30.558593,-22.835938 28.078124,-41.863282 c-2.484374,-19.023437 -18.691406,-33.253906 -37.878906,-33.257812 h-51.199218 v-12.5 c0.05859300000000001,-10.511719 -4.097657,-20.605469 -11.539063,-28.03125 c-7.441406,-7.421875 -17.550781,-11.5546875 -28.0625,-11.46875 h-88.796875 c-10.511719,-0.08593750000000001 -20.621094,4.046875 -28.0625,11.46875 c-7.441406,7.425781 -11.597656,17.519531 -11.539062,28.03125 v12.5 h-51.199219 c-19.1875,0.003906000000000001 -35.394531,14.234375 -37.878907,33.257812 c-2.480468,19.027344 9.535157,36.941407 28.078126,41.863282 zm239.601562,279.878906 h-189.203125 c-17.097656,0 -30.398437,-14.6875 -30.398437,-33.5 v-245.5 h250 v245.5 c0,18.8125 -13.300782,33.5 -30.398438,33.5 zm-158.601562,-367.5 c-0.06640700000000001,-5.207031 1.980468,-10.21875 5.675781000000001,-13.894531 c3.691406,-3.675781 8.714843,-5.6953130000000005 13.925781,-5.605469 h88.796875 c5.210937,-0.08984400000000002 10.234375,1.929688 13.925781,5.605469 c3.695313,3.671875 5.7421880000000005,8.6875 5.675782,13.894531 v12.5 h-128 zm-71.199219,32.5 h270.398437 c9.941406,0 18,8.058594 18,18 s-8.058594,18 -18,18 h-270.398437 c-9.941407,0 -18,-8.058594 -18,-18 s8.058593,-18 18,-18 zm0,0 " id="svg_3" class="" fill-opacity="1" fill="#ff0000"/><path d="m173.40163084200668,154.704439163208 c-5.523438,0 -10,4.476563 -10,10 v189 c0,5.519531 4.476562,10 10,10 c5.5234369999999995,0 10,-4.480469 10,-10 v-189 c0,-5.5234369999999995 -4.476563,-10 -10,-10 zm0,0 " id="svg_4" class="" fill-opacity="1" fill="#ff0000"/></g></svg>